<?xml version="1.0" encoding="utf-8"?>
<!-- Generator: Adobe Illustrator 16.0.0, SVG Export Plug-In . SVG Version: 6.00 Build 0)  -->
<!DOCTYPE svg PUBLIC "-//W3C//DTD SVG 1.1//EN" "http://www.w3.org/Graphics/SVG/1.1/DTD/svg11.dtd">
<svg version="1.1" id="Main" xmlns="http://www.w3.org/2000/svg" xmlns:xlink="http://www.w3.org/1999/xlink" x="0px" y="0px"
	 width="765.11px" height="264.95px" viewBox="0 0 765.11 264.95" enable-background="new 0 0 765.11 264.95" xml:space="preserve">
<g id="Emblem">
	<g id="Expanded_1_">
		<g id="Knife_1_">
			<path d="M681.569,166.015c-7.475,0-14.552-2.411-20.465-6.974c-1.55-1.195-1.837-3.421-0.642-4.97s3.419-1.838,4.97-0.642
				c4.663,3.598,10.243,5.499,16.137,5.499c14.588,0,26.457-11.869,26.457-26.457c0-14.588-11.869-26.457-26.457-26.457
				c-5.893,0-11.474,1.901-16.138,5.5c-1.552,1.196-3.774,0.908-4.97-0.642s-0.908-3.774,0.642-4.97
				c5.916-4.563,12.992-6.975,20.466-6.975c18.496,0,33.543,15.048,33.543,33.543C715.112,150.968,700.065,166.015,681.569,166.015z
				"/>
			<path d="M681.569,206.015c-25.576,0-48.929-12.986-62.468-34.74c-1.034-1.661-0.526-3.847,1.136-4.88
				c1.659-1.035,3.847-0.526,4.88,1.136c12.237,19.66,33.341,31.398,56.452,31.398c36.645,0,66.457-29.813,66.457-66.457
				s-29.813-66.457-66.457-66.457c-23.111,0-44.215,11.737-56.452,31.398c-1.034,1.662-3.223,2.168-4.88,1.136
				c-1.662-1.034-2.17-3.219-1.136-4.881c13.539-21.753,36.892-34.74,62.468-34.74c40.552,0,73.543,32.992,73.543,73.543
				S722.121,206.015,681.569,206.015z"/>
			<path d="M681.569,186.015c-16.687,0-32.126-7.585-42.36-20.812c-1.197-1.547-0.913-3.772,0.635-4.971
				c1.547-1.196,3.773-0.912,4.971,0.635c8.881,11.478,22.278,18.062,36.755,18.062c25.616,0,46.457-20.841,46.457-46.457
				s-20.841-46.457-46.457-46.457c-14.477,0-27.874,6.583-36.755,18.062c-1.198,1.547-3.425,1.832-4.971,0.634
				c-1.548-1.197-1.832-3.423-0.635-4.971c10.234-13.226,25.674-20.812,42.36-20.812c29.523,0,53.543,24.02,53.543,53.543
				C735.112,161.996,711.092,186.015,681.569,186.015z"/>
			<path d="M75.152,150.746c-10.076,0-18.273-8.197-18.273-18.272c0-6.168-5.019-11.186-11.187-11.186s-11.187,5.018-11.187,11.186
				c0,1.957-1.586,3.543-3.543,3.543s-3.543-1.586-3.543-3.543c0-10.076,8.198-18.273,18.274-18.273s18.274,8.197,18.274,18.273
				c0,6.168,5.018,11.187,11.186,11.187s11.186-5.019,11.186-11.187c0-1.957,1.586-3.543,3.543-3.543s3.543,1.586,3.543,3.543
				C93.425,142.548,85.228,150.746,75.152,150.746z"/>
			<path d="M685.879,126.802c-1.054-0.808-2.297-1.292-3.585-1.425c-40.413-10.782-89.105-18.883-144.751-24.083
				c-47.436-4.433-98.637-6.68-152.182-6.68c-67.367,0-122.474,3.599-155.883,7.406c-0.401-28.587,3.635-51.501,10.96-57.814
				c5.055-4.357,8.006-2.814,8.974-2.309c2.508,1.313,4.961,4.738,4.567,8.501c-0.405,3.857-1.679,5.568-5.93,7.96
				c-7.504,4.223-10.164,13.729-5.941,21.233c4.224,7.504,13.73,10.165,21.233,5.941c12.908-7.264,20.192-17.991,21.648-31.882
				c1.685-16.065-6.805-31.892-21.125-39.382c-14.205-7.429-30.572-5.068-43.783,6.318c-12.165,10.484-19.086,29.506-21.159,58.155
				c-0.463,6.401-0.642,12.796-0.64,18.894H96.84c-0.006,0-0.011,0-0.017,0C87.638,88.042,74.721,82.05,60.422,82.05
				c-27.804,0-50.424,22.62-50.424,50.423c0,27.803,22.62,50.422,50.424,50.423c14.299,0,27.217-5.993,36.402-15.588
				c0.005,0,0.01,0.001,0.016,0.001h101.443c-0.002,6.098,0.177,12.493,0.64,18.894c2.073,28.648,8.994,47.671,21.158,58.155
				c8.123,7.001,17.437,10.591,26.71,10.591c5.808-0.001,11.602-1.409,17.072-4.271c14.321-7.49,22.811-23.317,21.126-39.384
				c-1.457-13.891-8.74-24.616-21.648-31.881c-7.502-4.222-17.01-1.563-21.233,5.94c-4.223,7.504-1.563,17.011,5.941,21.233
				c4.25,2.392,5.525,4.103,5.93,7.959c0.395,3.765-2.059,7.19-4.567,8.503c-0.968,0.506-3.918,2.048-8.974-2.31
				c-7.324-6.313-11.36-29.228-10.959-57.814c33.409,3.808,88.516,7.406,155.883,7.406c53.55,0,104.751-2.247,152.181-6.679
				c55.643-5.199,104.335-13.301,144.752-24.083c1.288-0.133,2.531-0.617,3.585-1.425c1.75-1.342,2.776-3.42,2.776-5.625v-0.093
				C688.656,130.221,687.629,128.143,685.879,126.802z M108.979,104.722l-3.117,5.904c-0.99-2.05-2.122-4.019-3.37-5.904H108.979z
				 M60.422,175.81c-23.896-0.001-43.337-19.442-43.337-43.337c0-23.896,19.441-43.336,43.337-43.336
				c23.896,0,43.335,19.44,43.335,43.336C103.758,156.369,84.318,175.81,60.422,175.81z M102.493,160.222
				c5.271-7.966,8.352-17.503,8.352-27.749c0-4.464-0.59-8.792-1.685-12.917l7.833-14.833h26.986l-29.307,55.5H102.493z
				 M122.686,160.222l29.307-55.5h26.986l-29.307,55.5H122.686z M157.686,160.222l29.307-55.5h11.371
				c0.248,11.036,1.009,20.561,1.596,26.548l-15.288,28.952H157.686z M192.686,160.222l6.135-11.618
				c-0.2,3.594-0.365,7.499-0.457,11.618H192.686z M224.211,131.559c0.065,0.607,0.065,1.219,0,1.826
				c-4.067,37.671-2.057,80.951,11.601,92.722c5.612,4.837,11.608,5.98,16.885,3.221c5.558-2.907,8.984-9.29,8.331-15.521
				c-0.745-7.099-4.337-10.489-9.502-13.396c-4.093-2.304-5.544-7.489-3.241-11.582c2.304-4.094,7.49-5.543,11.582-3.24
				c4.022,2.264,16.263,9.152,18.076,26.444c1.384,13.202-5.593,26.209-17.362,32.365c-4.387,2.295-9.047,3.424-13.737,3.425
				c-7.641,0-15.364-2.996-22.135-8.833c-10.664-9.191-16.786-26.625-18.716-53.299c-1.588-21.94,0.24-43.909,1.213-53.219
				c-0.973-9.31-2.801-31.278-1.213-53.219c1.93-26.673,8.052-44.107,18.717-53.298c10.928-9.418,24.339-11.441,35.872-5.407
				c11.769,6.156,18.746,19.162,17.362,32.363c-1.813,17.293-14.054,24.182-18.076,26.445c-4.092,2.303-9.277,0.853-11.582-3.241
				c-2.303-4.093-0.853-9.278,3.241-11.582c5.165-2.907,8.757-6.297,9.502-13.396c0.653-6.23-2.772-12.612-8.33-15.52
				c-5.274-2.76-11.272-1.618-16.885,3.22C222.155,50.608,220.145,93.888,224.211,131.559z M681.569,132.519
				c-0.055-0.015-0.117-0.031-0.173-0.046c-86.725,23.3-199.966,30.771-296.034,30.771c-63.712,0-119.854-3.289-155.695-7.428
				c0.247-6.411,0.711-13.049,1.399-19.801h357.948c1.957,0,3.543-1.586,3.543-3.543s-1.586-3.543-3.543-3.543H231.066
				c-0.689-6.752-1.153-13.39-1.4-19.801c35.841-4.14,91.965-7.428,155.695-7.428c96.062,0,209.319,7.474,296.034,30.772
				c0.056-0.016,0.118-0.032,0.173-0.047V132.519z"/>
		</g>
		<g id="Text_1_">
			<g id="SONIC_2_">
				<path d="M301.987,63.702c2.598,3.738,5.305,6.637,8.123,8.693c2.818,2.059,6.475,3.088,10.973,3.088
					c2.152,0,4.211-0.348,6.176-1.045c1.961-0.697,3.576-1.711,4.844-3.041s1.9-2.912,1.9-4.75c0-3.166-1.346-5.637-4.037-7.41
					c-2.693-1.771-6.477-3.135-11.354-4.084c-6.207-1.268-11.146-3.469-14.818-6.604c-3.674-3.135-5.51-7.678-5.51-13.633
					c0-3.799,1.059-7.092,3.182-9.879c2.121-2.787,4.924-4.939,8.408-6.461c3.482-1.52,7.25-2.279,11.305-2.279
					c5.256,0,9.785,1.014,13.584,3.039c3.801,2.029,6.777,4.91,8.93,8.646l-7.219,7.125c-1.711-2.852-3.863-5.162-6.461-6.936
					c-2.598-1.771-5.637-2.66-9.119-2.66c-3.484,0-6.412,0.807-8.787,2.422s-3.563,3.848-3.563,6.697c0,3.23,1.25,5.592,3.752,7.078
					c2.502,1.488,5.811,2.676,9.928,3.563c3.736,0.76,7.281,1.934,10.639,3.516c3.357,1.584,6.096,3.627,8.219,6.127
					c2.121,2.502,3.182,5.527,3.182,9.072c0,6.334-2.152,11.369-6.459,15.105c-4.309,3.738-10.229,5.604-17.766,5.604
					c-5.129,0-9.801-1.012-14.012-3.04c-4.213-2.025-7.902-5.32-11.068-9.879L301.987,63.702z"/>
				<path d="M419.217,50.497c0,4.814-0.793,9.295-2.375,13.443c-1.584,4.148-3.848,7.775-6.793,10.877
					c-2.945,3.104-6.396,5.527-10.355,7.268c-3.959,1.741-8.313,2.612-13.063,2.612s-9.119-0.871-13.109-2.612
					c-3.99-1.74-7.443-4.164-10.355-7.268c-2.914-3.102-5.162-6.729-6.744-10.877c-1.584-4.148-2.375-8.629-2.375-13.443
					c0-4.813,0.791-9.293,2.375-13.441c1.582-4.148,3.83-7.773,6.744-10.877c2.912-3.104,6.365-5.525,10.355-7.268
					s8.359-2.613,13.109-2.613s9.104,0.871,13.063,2.613s7.41,4.164,10.355,7.268s5.209,6.729,6.793,10.877
					C418.424,41.204,419.217,45.684,419.217,50.497z M408.766,50.497c0-4.621-0.949-8.754-2.85-12.396
					c-1.9-3.641-4.512-6.523-7.838-8.645c-3.324-2.121-7.141-3.184-11.447-3.184c-4.369,0-8.217,1.063-11.541,3.184
					c-3.326,2.121-5.924,5.004-7.791,8.645c-1.869,3.643-2.803,7.775-2.803,12.396c0,4.625,0.934,8.758,2.803,12.398
					c1.867,3.643,4.465,6.523,7.791,8.645c3.324,2.123,7.172,3.184,11.541,3.184c4.307,0,8.123-1.061,11.447-3.184
					c3.326-2.121,5.938-5.018,7.838-8.691S408.766,55.057,408.766,50.497z"/>
				<path d="M479.542,17.247h10.26v66.501h-9.404l-38.664-50.729c0.379,3.863,0.742,7.711,1.092,11.541
					c0.348,3.834,0.521,7.682,0.521,11.543v27.646h-10.26V17.247h9.215l38.666,51.775c-0.57-4.621-0.949-9.609-1.141-14.963
					c-0.189-5.35-0.285-10.338-0.285-14.961V17.247z"/>
				<path d="M537.682,83.748h-31.73v-9.501h10.736v-47.5h-10.736v-9.5h31.73v9.5h-10.734v47.5h10.734V83.748z"/>
				<path d="M602.946,75.577c-1.33,1.521-3.182,2.979-5.557,4.371s-5.1,2.533-8.17,3.419c-3.072,0.887-6.35,1.33-9.832,1.33
					c-5.955,0-11.322-1.408-16.104-4.228c-4.781-2.816-8.582-6.791-11.4-11.922s-4.227-11.146-4.227-18.051
					c0-4.875,0.855-9.371,2.564-13.49c1.711-4.115,4.086-7.693,7.125-10.734c3.041-3.039,6.523-5.398,10.451-7.078
					c3.926-1.676,8.074-2.516,12.443-2.516c3.611,0,6.984,0.555,10.119,1.662s5.889,2.533,8.264,4.275s4.229,3.594,5.559,5.557
					l-6.84,7.125c-2.344-2.406-4.941-4.4-7.791-5.984s-5.953-2.375-9.311-2.375c-3.799,0-7.395,0.949-10.781,2.85
					c-3.389,1.9-6.127,4.607-8.219,8.123c-2.09,3.514-3.135,7.711-3.135,12.586c0,5.32,1.061,9.754,3.184,13.301
					c2.121,3.547,4.939,6.191,8.455,7.932c3.514,1.744,7.299,2.613,11.352,2.613c3.736,0,7.031-0.744,9.881-2.232
					s5.129-3.119,6.84-4.893L602.946,75.577z"/>
			</g>
			<g id="ATHAME_2_">
				<path d="M335.656,233.511l-5.021-13.236h-22.289l-5.02,13.236h-8.369l20.615-53.249h8.367l20.463,53.249H335.656z
					 M315.42,201.713l-4.031,10.649h16.279l-4.185-10.952c-0.659-1.775-1.317-3.69-1.979-5.744
					c-0.658-2.054-1.317-4.119-1.978-6.198c-0.71,2.129-1.406,4.259-2.091,6.389C316.75,197.985,316.079,199.939,315.42,201.713z"/>
				<path d="M360.075,233.511v-45.338h-14.91v-7.911h38.492v7.911H368.29v45.338H360.075z"/>
				<path d="M401.989,180.262v22.746h26.548v-22.746h8.214v53.249h-8.214v-22.593h-26.548v22.593h-8.217v-53.249H401.989z"/>
				<path d="M486.803,233.511l-5.02-13.236h-22.287l-5.021,13.236h-8.367l20.613-53.249h8.368l20.463,53.249H486.803z
					 M466.569,201.713l-4.031,10.649h16.28l-4.185-10.952c-0.66-1.775-1.319-3.69-1.978-5.744c-0.66-2.054-1.319-4.119-1.978-6.198
					c-0.713,2.129-1.408,4.259-2.092,6.389C467.901,197.985,467.229,199.939,466.569,201.713z"/>
				<path d="M512.972,180.262l17.421,28.373l17.723-28.373h7.607v53.249h-8.216v-21.832c0-3.196,0.062-6.224,0.19-9.089
					c0.126-2.867,0.343-5.719,0.646-8.559l-15.67,24.188h-5.021l-15.289-24.114c0.303,2.842,0.506,5.682,0.607,8.521
					c0.102,2.841,0.153,5.856,0.153,9.053v21.832h-8.217v-53.249H512.972z"/>
				<path d="M570.633,180.262h33.546v7.911H578.85v14.072h21.146v7.913H578.85v15.442h25.329v7.91h-33.546V180.262z"/>
			</g>
		</g>
	</g>
	<g id="TM_1_">
		<path d="M727.522,64.246v-8.447h-2.866v-2.187h8.123v2.187h-3.013v8.447H727.522z M736.323,53.612l3.516,5.937l3.514-5.937h2.216
			v10.634h-2.452v-6.381l-2.333,4.077h-1.949l-2.156-3.722v6.025h-2.393V53.612H736.323z"/>
	</g>
</g>
</svg>
