<?xml version="1.0" encoding="utf-8"?>
<!-- Generator: Adobe Illustrator 16.0.0, SVG Export Plug-In . SVG Version: 6.00 Build 0)  -->
<!DOCTYPE svg PUBLIC "-//W3C//DTD SVG 1.1//EN" "http://www.w3.org/Graphics/SVG/1.1/DTD/svg11.dtd">
<svg version="1.1" id="Main" xmlns="http://www.w3.org/2000/svg" xmlns:xlink="http://www.w3.org/1999/xlink" x="0px" y="0px"
	 width="775.11px" height="315.84px" viewBox="-5 -5 775.11 315.84" enable-background="new -5 -5 775.11 315.84"
	 xml:space="preserve">
<path fill="#FFFFFF" d="M765.11,236.09c0,38.521-31.229,69.75-69.75,69.75H69.75C31.228,305.84,0,274.611,0,236.09V69.75
	C0,31.228,31.228,0,69.75,0h625.61c38.521,0,69.75,31.228,69.75,69.75V236.09z"/>
<g id="Emblem_1_">
	<g>
		<g id="Expanded_1_">
			<g id="Knife_1_">
				<path d="M681.569,166.016c-7.475,0-14.553-2.412-20.465-6.975c-1.551-1.195-1.838-3.42-0.643-4.969
					c1.195-1.549,3.42-1.838,4.971-0.642c4.662,3.598,10.242,5.5,16.137,5.5c14.588,0,26.457-11.87,26.457-26.458
					c0-14.588-11.869-26.457-26.457-26.457c-5.893,0-11.475,1.901-16.139,5.5c-1.551,1.196-3.773,0.908-4.969-0.642
					c-1.197-1.55-0.908-3.774,0.641-4.97c5.916-4.563,12.992-6.975,20.467-6.975c18.496,0,33.543,15.048,33.543,33.543
					C715.112,150.968,700.065,166.016,681.569,166.016z"/>
				<path d="M681.569,206.016c-25.576,0-48.93-12.985-62.469-34.74c-1.033-1.661-0.525-3.848,1.137-4.881
					c1.658-1.035,3.848-0.524,4.881,1.138c12.236,19.659,33.34,31.397,56.451,31.397c36.645,0,66.457-29.813,66.457-66.458
					s-29.813-66.457-66.457-66.457c-23.111,0-44.215,11.737-56.451,31.398c-1.035,1.662-3.225,2.168-4.881,1.136
					c-1.662-1.034-2.17-3.219-1.137-4.881c13.539-21.753,36.893-34.74,62.469-34.74c40.553,0,73.543,32.992,73.543,73.543
					C755.112,173.023,722.122,206.016,681.569,206.016z"/>
				<path d="M681.569,186.016c-16.688,0-32.125-7.586-42.359-20.813c-1.197-1.547-0.914-3.771,0.635-4.971
					c1.547-1.195,3.773-0.912,4.971,0.635c8.881,11.479,22.277,18.063,36.756,18.063c25.615,0,46.457-20.841,46.457-46.458
					c0-25.617-20.842-46.457-46.457-46.457c-14.479,0-27.875,6.583-36.756,18.062c-1.197,1.547-3.426,1.832-4.971,0.634
					c-1.549-1.197-1.832-3.423-0.635-4.971c10.234-13.226,25.674-20.813,42.359-20.813c29.523,0,53.543,24.021,53.543,53.543
					S711.092,186.016,681.569,186.016z"/>
				<path d="M75.152,150.746c-10.076,0-18.273-8.197-18.273-18.272c0-6.168-5.019-11.186-11.187-11.186s-11.187,5.018-11.187,11.186
					c0,1.957-1.586,3.543-3.543,3.543s-3.543-1.586-3.543-3.543c0-10.076,8.198-18.273,18.274-18.273
					c10.076,0,18.274,8.197,18.274,18.273c0,6.168,5.018,11.187,11.186,11.187s11.186-5.019,11.186-11.187
					c0-1.957,1.586-3.543,3.543-3.543s3.543,1.586,3.543,3.543C93.425,142.548,85.228,150.746,75.152,150.746z"/>
				<path d="M685.879,126.802c-1.055-0.808-2.297-1.292-3.586-1.425c-40.412-10.782-89.104-18.883-144.75-24.083
					c-47.436-4.433-98.637-6.68-152.182-6.68c-67.367,0-122.475,3.599-155.883,7.406c-0.401-28.587,3.635-51.501,10.96-57.814
					c5.055-4.357,8.006-2.814,8.974-2.309c2.508,1.313,4.961,4.738,4.567,8.501c-0.405,3.857-1.679,5.568-5.93,7.96
					c-7.504,4.223-10.164,13.729-5.941,21.233c4.224,7.504,13.73,10.165,21.233,5.941c12.908-7.264,20.192-17.991,21.648-31.882
					c1.685-16.065-6.805-31.892-21.125-39.382c-14.205-7.429-30.572-5.068-43.783,6.318c-12.165,10.484-19.086,29.506-21.159,58.155
					c-0.463,6.401-0.642,12.796-0.64,18.894H96.84c-0.006,0-0.011,0-0.017,0C87.638,88.042,74.721,82.05,60.422,82.05
					c-27.804,0-50.424,22.62-50.424,50.423c0,27.802,22.62,50.421,50.424,50.423c14.299,0,27.217-5.994,36.402-15.588
					c0.005,0,0.01,0,0.016,0h101.443c-0.002,6.098,0.177,12.493,0.64,18.895c2.073,28.648,8.994,47.67,21.158,58.154
					c8.123,7.002,17.437,10.592,26.71,10.592c5.808-0.002,11.602-1.41,17.072-4.271c14.321-7.49,22.811-23.318,21.126-39.385
					c-1.457-13.891-8.74-24.615-21.648-31.881c-7.502-4.221-17.01-1.563-21.233,5.941s-1.563,17.01,5.941,21.231
					c4.25,2.394,5.525,4.104,5.93,7.959c0.395,3.767-2.059,7.19-4.567,8.504c-0.968,0.507-3.918,2.048-8.974-2.312
					c-7.324-6.313-11.36-29.227-10.959-57.813c33.409,3.81,88.516,7.406,155.883,7.406c53.55,0,104.751-2.246,152.181-6.679
					c55.643-5.198,104.334-13.3,144.752-24.083c1.287-0.133,2.531-0.617,3.584-1.425c1.75-1.342,2.777-3.42,2.777-5.625v-0.093
					C688.657,130.221,687.629,128.143,685.879,126.802z M108.979,104.722l-3.117,5.904c-0.99-2.05-2.122-4.019-3.37-5.904H108.979z
					 M60.422,175.811c-23.896-0.002-43.337-19.442-43.337-43.336c0-23.896,19.441-43.336,43.337-43.336s43.335,19.44,43.335,43.336
					C103.758,156.369,84.318,175.811,60.422,175.811z M102.493,160.223c5.271-7.966,8.352-17.503,8.352-27.75
					c0-4.464-0.59-8.792-1.685-12.917l7.833-14.833h26.986l-29.307,55.5H102.493z M122.686,160.223l29.307-55.5h26.986l-29.307,55.5
					H122.686z M157.686,160.223l29.307-55.5h11.371c0.248,11.036,1.009,20.561,1.596,26.548l-15.288,28.954h-26.986V160.223z
					 M192.686,160.223l6.135-11.619c-0.2,3.594-0.365,7.499-0.457,11.619H192.686z M224.211,131.559
					c0.065,0.607,0.065,1.219,0,1.826c-4.067,37.672-2.057,80.951,11.601,92.723c5.612,4.836,11.608,5.979,16.885,3.221
					c5.558-2.908,8.984-9.291,8.331-15.521c-0.745-7.1-4.337-10.49-9.502-13.396c-4.093-2.304-5.544-7.488-3.241-11.582
					c2.304-4.095,7.49-5.543,11.582-3.24c4.022,2.265,16.263,9.152,18.076,26.445c1.384,13.2-5.593,26.209-17.362,32.364
					c-4.387,2.295-9.047,3.425-13.737,3.425c-7.641,0-15.364-2.996-22.135-8.832c-10.664-9.191-16.786-26.625-18.716-53.3
					c-1.588-21.94,0.24-43.909,1.213-53.218c-0.973-9.31-2.801-31.278-1.213-53.219c1.93-26.673,8.052-44.107,18.717-53.298
					c10.928-9.418,24.339-11.441,35.872-5.407c11.769,6.156,18.746,19.162,17.362,32.363c-1.813,17.293-14.054,24.182-18.076,26.445
					c-4.092,2.303-9.277,0.853-11.582-3.241c-2.303-4.093-0.853-9.278,3.241-11.582c5.165-2.907,8.757-6.297,9.502-13.396
					c0.653-6.23-2.772-12.612-8.33-15.52c-5.274-2.76-11.272-1.618-16.885,3.22C222.155,50.608,220.145,93.888,224.211,131.559z
					 M681.569,132.519c-0.055-0.015-0.117-0.031-0.172-0.046c-86.727,23.3-199.967,30.771-296.035,30.771
					c-63.712,0-119.854-3.289-155.695-7.427c0.247-6.411,0.711-13.049,1.399-19.801h357.948c1.957,0,3.543-1.586,3.543-3.543
					s-1.586-3.543-3.543-3.543H231.066c-0.689-6.752-1.153-13.39-1.4-19.801c35.841-4.14,91.965-7.428,155.695-7.428
					c96.061,0,209.319,7.474,296.034,30.772c0.057-0.016,0.117-0.032,0.174-0.047V132.519L681.569,132.519z"/>
			</g>
			<g id="Text_1_">
				<g id="SONIC_2_">
					<path d="M301.987,63.702c2.598,3.738,5.305,6.637,8.124,8.693c2.817,2.059,6.475,3.088,10.973,3.088
						c2.152,0,4.211-0.348,6.176-1.045c1.961-0.697,3.576-1.711,4.844-3.041c1.269-1.33,1.9-2.912,1.9-4.75
						c0-3.166-1.346-5.637-4.037-7.41c-2.692-1.771-6.477-3.135-11.354-4.084c-6.207-1.268-11.146-3.469-14.818-6.604
						c-3.674-3.135-5.51-7.678-5.51-13.633c0-3.799,1.059-7.092,3.182-9.879c2.121-2.787,4.924-4.939,8.408-6.461
						c3.481-1.52,7.25-2.279,11.305-2.279c5.256,0,9.785,1.014,13.584,3.039c3.802,2.029,6.777,4.91,8.931,8.646l-7.22,7.125
						c-1.711-2.852-3.862-5.162-6.461-6.936c-2.598-1.771-5.637-2.66-9.119-2.66c-3.483,0-6.411,0.807-8.786,2.422
						c-2.375,1.615-3.563,3.848-3.563,6.697c0,3.23,1.25,5.592,3.752,7.078c2.502,1.488,5.812,2.676,9.928,3.563
						c3.736,0.76,7.281,1.934,10.64,3.516c3.356,1.584,6.096,3.627,8.219,6.127c2.121,2.502,3.182,5.527,3.182,9.072
						c0,6.334-2.151,11.369-6.459,15.105c-4.309,3.738-10.229,5.604-17.766,5.604c-5.129,0-9.801-1.012-14.012-3.04
						c-4.213-2.025-7.902-5.32-11.068-9.879L301.987,63.702z"/>
					<path d="M419.217,50.497c0,4.814-0.793,9.295-2.375,13.443c-1.584,4.148-3.848,7.775-6.793,10.877
						c-2.945,3.104-6.396,5.527-10.355,7.268s-8.313,2.612-13.063,2.612c-4.75,0-9.119-0.871-13.109-2.612
						c-3.989-1.74-7.442-4.164-10.354-7.268c-2.914-3.102-5.162-6.729-6.744-10.877c-1.584-4.148-2.375-8.629-2.375-13.443
						c0-4.813,0.791-9.293,2.375-13.441c1.582-4.148,3.83-7.773,6.744-10.877c2.912-3.104,6.365-5.525,10.354-7.268
						c3.99-1.743,8.359-2.613,13.109-2.613c4.75,0,9.104,0.871,13.063,2.613c3.959,1.742,7.41,4.164,10.355,7.268
						s5.209,6.729,6.793,10.877C418.424,41.204,419.217,45.684,419.217,50.497z M408.766,50.497c0-4.621-0.949-8.754-2.85-12.396
						c-1.9-3.641-4.512-6.523-7.838-8.645c-3.324-2.121-7.141-3.184-11.448-3.184c-4.369,0-8.217,1.063-11.541,3.184
						c-3.326,2.121-5.924,5.004-7.791,8.645c-1.869,3.643-2.803,7.775-2.803,12.396c0,4.625,0.934,8.758,2.803,12.398
						c1.867,3.643,4.465,6.523,7.791,8.645c3.324,2.123,7.172,3.184,11.541,3.184c4.307,0,8.124-1.061,11.448-3.184
						c3.326-2.121,5.938-5.018,7.838-8.691C407.817,59.176,408.766,55.057,408.766,50.497z"/>
					<path d="M479.542,17.247h10.26v66.501h-9.402l-38.664-50.729c0.379,3.863,0.74,7.711,1.092,11.541
						c0.348,3.834,0.52,7.682,0.52,11.543v27.646h-10.26V17.247h9.215l38.666,51.775c-0.568-4.621-0.947-9.609-1.141-14.963
						c-0.189-5.35-0.285-10.338-0.285-14.961V17.247z"/>
					<path d="M537.682,83.748h-31.73v-9.501h10.736v-47.5h-10.736v-9.5h31.73v9.5h-10.734v47.5h10.734V83.748z"/>
					<path d="M602.946,75.577c-1.33,1.521-3.182,2.979-5.557,4.371c-2.375,1.392-5.1,2.533-8.17,3.419
						c-3.072,0.887-6.35,1.33-9.832,1.33c-5.955,0-11.322-1.408-16.104-4.229c-4.781-2.816-8.582-6.791-11.4-11.922
						s-4.227-11.146-4.227-18.051c0-4.875,0.854-9.371,2.563-13.49c1.711-4.115,4.086-7.693,7.125-10.734
						c3.041-3.039,6.523-5.398,10.451-7.078c3.926-1.676,8.074-2.516,12.443-2.516c3.611,0,6.984,0.555,10.119,1.662
						c3.135,1.107,5.889,2.533,8.264,4.275c2.375,1.742,4.229,3.594,5.559,5.557l-6.84,7.125c-2.344-2.406-4.939-4.4-7.791-5.984
						c-2.85-1.584-5.953-2.375-9.311-2.375c-3.799,0-7.395,0.949-10.781,2.85c-3.389,1.9-6.127,4.607-8.219,8.123
						c-2.09,3.514-3.135,7.711-3.135,12.586c0,5.32,1.061,9.754,3.184,13.301c2.121,3.547,4.939,6.191,8.455,7.932
						c3.514,1.744,7.299,2.613,11.352,2.613c3.736,0,7.031-0.744,9.881-2.232c2.852-1.488,5.131-3.119,6.842-4.893L602.946,75.577z"
						/>
				</g>
				<g id="ATHAME_2_">
					<path d="M335.656,233.512l-5.021-13.236h-22.289l-5.02,13.236h-8.369l20.615-53.25h8.367l20.463,53.25H335.656z
						 M315.42,201.713l-4.031,10.65h16.279l-4.185-10.953c-0.659-1.775-1.317-3.689-1.979-5.744
						c-0.658-2.053-1.316-4.119-1.978-6.197c-0.71,2.129-1.406,4.258-2.092,6.389C316.75,197.984,316.079,199.939,315.42,201.713z"
						/>
					<path d="M360.075,233.512v-45.338h-14.91v-7.912h38.492v7.912H368.29v45.338H360.075z"/>
					<path d="M401.989,180.262v22.746h26.549v-22.746h8.213v53.25h-8.213v-22.594h-26.549v22.594h-8.217v-53.25H401.989z"/>
					<path d="M486.803,233.512l-5.02-13.236h-22.287l-5.021,13.236h-8.367l20.613-53.25h8.367l20.463,53.25H486.803z
						 M466.569,201.713l-4.031,10.65h16.281l-4.186-10.953c-0.66-1.775-1.318-3.689-1.979-5.744
						c-0.66-2.053-1.318-4.119-1.979-6.197c-0.713,2.129-1.406,4.258-2.092,6.389C467.901,197.984,467.229,199.939,466.569,201.713z
						"/>
					<path d="M512.971,180.262l17.422,28.373l17.723-28.373h7.607v53.25h-8.217V211.68c0-3.197,0.063-6.225,0.191-9.09
						c0.125-2.867,0.342-5.719,0.645-8.559l-15.67,24.188h-5.02l-15.289-24.114c0.303,2.842,0.506,5.682,0.605,8.521
						c0.102,2.839,0.154,5.854,0.154,9.053v21.832h-8.217v-53.25L512.971,180.262L512.971,180.262z"/>
					<path d="M570.633,180.262h33.545v7.912H578.85v14.072h21.146v7.912H578.85v15.443h25.328v7.909h-33.545V180.262
						L570.633,180.262z"/>
				</g>
			</g>
		</g>
		<g id="TM_1_">
			<path d="M727.522,64.246v-8.447h-2.865v-2.187h8.123v2.187h-3.014v8.447H727.522z M736.323,53.612l3.516,5.937l3.514-5.937h2.217
				v10.634h-2.451v-6.381l-2.334,4.077h-1.949l-2.156-3.722v6.025h-2.393V53.612H736.323z"/>
		</g>
	</g>
	<g id="Tagline_1_">
		<path d="M175.805,295.428l6.599-24.625h-8.099l1.152-4.299h20.908l-1.152,4.299h-8.346l-6.599,24.625H175.805z"/>
		<path d="M210.331,273.281c1.956,0,3.365,0.398,4.224,1.199c0.86,0.799,1.323,1.873,1.388,3.223s-0.123,2.85-0.566,4.502
			l-3.542,13.223h-4.256l3.465-12.932c0.28-1.047,0.394-1.984,0.34-2.811c-0.054-0.826-0.35-1.474-0.885-1.941
			c-0.535-0.469-1.407-0.662-2.613-0.578c-1.102,0-2.143,0.234-3.122,0.701c-0.98,0.469-1.82,1.088-2.522,1.859
			c-0.703,0.771-1.18,1.627-1.431,2.563l-3.521,13.139h-4.256l8.193-30.576h4.256l-3.3,12.314c0.935-1.02,2.14-1.924,3.618-2.707
			C207.278,273.674,208.788,273.281,210.331,273.281z"/>
		<path d="M237.017,292.576h-0.042c-1.11,0.855-2.525,1.613-4.245,2.273c-1.72,0.659-3.42,0.991-5.1,0.991
			c-2.259,0-4.123-0.475-5.589-1.426c-1.467-0.949-2.459-2.258-2.977-3.926c-0.518-1.666-0.492-3.56,0.077-5.683
			c0.649-2.424,1.714-4.496,3.195-6.219c1.48-1.721,3.184-3.043,5.112-3.967c1.927-0.922,3.883-1.383,5.866-1.383
			c1.818,0,3.352,0.447,4.599,1.344c1.248,0.895,2.101,2.127,2.563,3.697c0.461,1.57,0.411,3.402-0.15,5.496l-0.528,1.815h-16.61
			c-0.276,1.957,0.114,3.507,1.171,4.648s2.632,1.715,4.726,1.715c1.515,0,2.815-0.281,3.904-0.849
			c1.087-0.563,2.004-1.106,2.751-1.631L237.017,292.576z M232.263,277.166c-1.625,0-3.146,0.379-4.56,1.135
			c-1.416,0.758-2.564,2.061-3.443,3.904h12.148l0.078-0.287c0.168-0.938,0.079-1.764-0.266-2.48
			c-0.345-0.715-0.864-1.272-1.556-1.674C233.972,277.365,233.172,277.166,232.263,277.166z"/>
		<path d="M274.001,266.504c1.542,0,2.855,0.395,3.94,1.178c1.084,0.785,1.833,1.849,2.247,3.185
			c0.413,1.336,0.395,2.844-0.055,4.522c-0.443,1.652-1.233,3.16-2.369,4.523c-1.137,1.365-2.46,2.445-3.968,3.244
			c-1.51,0.799-3.035,1.199-4.577,1.199h-7.313l-2.967,11.071h-4.463l7.75-28.924L274.001,266.504L274.001,266.504z
			 M270.287,280.059c0.744,0,1.475-0.213,2.196-0.643c0.72-0.426,1.36-0.99,1.92-1.693c0.561-0.703,0.955-1.479,1.184-2.334
			c0.346-1.295,0.238-2.383-0.324-3.264c-0.563-0.881-1.396-1.322-2.497-1.322h-7.23l-2.48,9.256H270.287z"/>
		<path d="M302.878,284.561c-0.591,2.205-1.602,4.152-3.034,5.849c-1.432,1.692-3.11,3.022-5.035,3.987
			c-1.925,0.963-3.92,1.445-5.986,1.445c-2.065,0-3.81-0.482-5.232-1.445c-1.422-0.965-2.395-2.295-2.919-3.987
			c-0.523-1.695-0.49-3.644,0.101-5.849c0.59-2.203,1.601-4.151,3.033-5.846c1.431-1.695,3.116-3.023,5.056-3.988
			c1.938-0.963,3.94-1.444,6.007-1.444c2.066,0,3.803,0.481,5.211,1.444c1.407,0.965,2.374,2.293,2.898,3.988
			C303.501,280.408,303.469,282.357,302.878,284.561z M298.54,284.561c0.418-1.459,0.481-2.748,0.188-3.862
			c-0.294-1.115-0.867-1.982-1.72-2.604c-0.854-0.619-1.914-0.928-3.181-0.928c-1.267,0-2.5,0.309-3.699,0.928
			c-1.199,0.621-2.245,1.488-3.135,2.604c-0.892,1.114-1.52,2.403-1.883,3.862c-0.412,1.435-0.47,2.707-0.177,3.822
			s0.872,1.99,1.735,2.623c0.863,0.635,1.928,0.951,3.195,0.951c1.268,0,2.495-0.316,3.685-0.951
			c1.189-0.633,2.229-1.508,3.121-2.623C297.56,287.268,298.183,285.994,298.54,284.561z"/>
		<path d="M309.635,295.428h-4.255l5.813-21.691h4.255L309.635,295.428z M314.52,269.025c-0.965,0-1.613-0.248-1.948-0.744
			c-0.336-0.496-0.396-1.143-0.184-1.941c0.186-0.689,0.585-1.309,1.201-1.859s1.405-0.825,2.37-0.825
			c0.964,0,1.613,0.247,1.949,0.743c0.335,0.496,0.396,1.144,0.182,1.941c-0.184,0.689-0.584,1.309-1.2,1.859
			S315.483,269.025,314.52,269.025z"/>
		<path d="M333.377,273.281c1.956,0,3.364,0.398,4.224,1.199c0.86,0.799,1.323,1.873,1.389,3.223c0.064,1.35-0.123,2.85-0.566,4.502
			l-3.543,13.223h-4.256l3.465-12.932c0.28-1.047,0.394-1.984,0.34-2.811c-0.055-0.826-0.35-1.474-0.885-1.941
			c-0.535-0.469-1.407-0.662-2.613-0.578c-1.103,0-2.143,0.234-3.122,0.701c-0.979,0.469-1.819,1.088-2.521,1.859
			c-0.703,0.771-1.18,1.627-1.43,2.563l-3.521,13.139h-4.256l5.812-21.691h4.257l-0.92,3.431c0.936-1.021,2.141-1.924,3.618-2.707
			C330.324,273.674,331.834,273.281,333.377,273.281z"/>
		<path d="M347.605,295.428h-4.256l4.706-17.561h-4.504l1.107-4.131h4.504l1.483-5.537h4.256l-1.484,5.537h5.041l-1.107,4.131
			h-5.041L347.605,295.428z"/>
		<path d="M391.795,284.561c-0.592,2.205-1.604,4.152-3.035,5.849c-1.431,1.692-3.108,3.022-5.035,3.987
			c-1.924,0.963-3.919,1.445-5.984,1.445c-2.066,0-3.811-0.482-5.232-1.445c-1.422-0.965-2.395-2.295-2.918-3.987
			c-0.523-1.695-0.491-3.644,0.101-5.849c0.59-2.203,1.601-4.151,3.032-5.846c1.433-1.695,3.116-3.023,5.057-3.988
			c1.938-0.963,3.939-1.444,6.007-1.444c2.064,0,3.803,0.481,5.211,1.444c1.408,0.965,2.373,2.293,2.898,3.988
			C392.418,280.408,392.385,282.357,391.795,284.561z M387.456,284.561c0.419-1.459,0.481-2.748,0.188-3.862
			c-0.294-1.115-0.866-1.982-1.72-2.604c-0.854-0.619-1.914-0.928-3.181-0.928c-1.268,0-2.5,0.309-3.698,0.928
			c-1.199,0.621-2.244,1.488-3.135,2.604c-0.893,1.114-1.52,2.403-1.883,3.862c-0.412,1.435-0.472,2.707-0.178,3.822
			s0.872,1.99,1.736,2.623c0.862,0.635,1.927,0.951,3.194,0.951c1.267,0,2.496-0.316,3.685-0.951
			c1.188-0.633,2.229-1.508,3.121-2.623C386.477,287.268,387.1,285.994,387.456,284.561z"/>
		<path d="M409.122,278.033h-5.123l-4.66,17.395h-4.299l4.662-17.395h-3.471l1.053-3.926h3.471l0.752-2.812
			c0.502-1.871,1.514-3.407,3.031-4.604c1.52-1.199,3.23-1.797,5.131-1.797c1.102,0,1.963,0.205,2.582,0.618
			c0.617,0.414,1.041,0.813,1.271,1.197l-2.322,3.265c-0.201-0.273-0.492-0.529-0.869-0.765c-0.379-0.235-0.787-0.353-1.229-0.353
			c-0.99,0-1.744,0.234-2.256,0.703s-0.857,1.047-1.043,1.734l-0.752,2.811h5.123L409.122,278.033z"/>
		<path d="M433.698,266.504l5.33,15.414l13.758-15.414h4.133l-7.75,28.924h-4.463l3.178-11.856c0.465-1.736,0.939-3.382,1.426-4.938
			s1.02-3.105,1.598-4.65l-12.033,13.142h-2.727l-4.797-13.099c-0.246,1.543-0.549,3.084-0.906,4.628
			c-0.359,1.543-0.771,3.182-1.236,4.918l-3.176,11.856h-4.463l7.75-28.924H433.698z"/>
		<path d="M479.887,284.561c-0.592,2.205-1.604,4.152-3.033,5.849c-1.434,1.692-3.111,3.022-5.035,3.987
			c-1.926,0.963-3.92,1.445-5.986,1.445s-3.811-0.482-5.23-1.445c-1.424-0.965-2.396-2.295-2.92-3.987
			c-0.523-1.695-0.49-3.644,0.1-5.849c0.592-2.203,1.604-4.151,3.035-5.846c1.43-1.695,3.115-3.023,5.055-3.988
			c1.938-0.963,3.941-1.444,6.008-1.444s3.803,0.481,5.211,1.444c1.408,0.965,2.373,2.293,2.898,3.988
			C480.51,280.408,480.477,282.357,479.887,284.561z M475.547,284.561c0.42-1.459,0.482-2.748,0.189-3.862
			c-0.295-1.115-0.867-1.982-1.721-2.604c-0.854-0.619-1.912-0.928-3.182-0.928c-1.266,0-2.5,0.309-3.699,0.928
			c-1.197,0.621-2.244,1.488-3.135,2.604c-0.891,1.114-1.52,2.403-1.883,3.862c-0.41,1.435-0.471,2.707-0.176,3.822
			c0.293,1.115,0.871,1.99,1.732,2.623c0.865,0.635,1.93,0.951,3.195,0.951c1.27,0,2.496-0.316,3.686-0.951
			c1.189-0.633,2.229-1.508,3.121-2.623S475.192,285.994,475.547,284.561z"/>
		<path d="M510.125,264.852l-8.193,30.576h-4.256l0.818-3.057c-0.861,0.854-2.01,1.645-3.445,2.375s-2.938,1.096-4.508,1.096
			c-1.957,0-3.588-0.482-4.902-1.445c-1.311-0.965-2.191-2.301-2.645-4.01c-0.451-1.707-0.385-3.65,0.197-5.826
			c0.592-2.203,1.568-4.151,2.93-5.846c1.363-1.695,2.945-3.023,4.748-3.988c1.801-0.963,3.664-1.444,5.594-1.444
			c1.541,0,2.854,0.315,3.938,0.95c1.084,0.634,1.869,1.377,2.355,2.23l3.113-11.611H510.125L510.125,264.852z M492.104,292.164
			c1.322,0,2.568-0.332,3.736-0.992c1.17-0.66,2.184-1.568,3.045-2.727c0.861-1.156,1.484-2.451,1.867-3.885
			c0.393-1.459,0.463-2.763,0.219-3.904c-0.242-1.143-0.771-2.045-1.588-2.705c-0.813-0.662-1.883-0.992-3.205-0.992
			c-1.295,0-2.525,0.33-3.695,0.992c-1.168,0.66-2.188,1.563-3.059,2.705c-0.873,1.143-1.502,2.445-1.895,3.904
			c-0.385,1.434-0.447,2.729-0.193,3.885c0.254,1.158,0.789,2.065,1.605,2.727C489.754,291.832,490.809,292.164,492.104,292.164z"/>
		<path d="M525.565,286.793l3.498-13.057h4.258l-5.814,21.69h-4.254l0.93-3.471c-0.906,1.021-2.078,1.922-3.516,2.707
			c-1.436,0.782-3.008,1.178-4.715,1.178c-2.26,0-3.885-0.771-4.875-2.313c-0.992-1.543-1.123-3.678-0.393-6.404l3.586-13.387h4.258
			l-3.277,12.229c-0.295,1.103-0.396,2.121-0.303,3.058c0.094,0.938,0.441,1.688,1.049,2.252c0.605,0.563,1.502,0.848,2.686,0.848
			c1.488,0,2.896-0.469,4.221-1.404C524.229,289.781,525.116,288.473,525.565,286.793z"/>
		<path d="M533.458,295.428l8.193-30.576h4.256l-8.193,30.576H533.458z"/>
		<path d="M569.391,273.736l-5.813,21.69h-4.299l0.896-3.348c-0.904,0.91-2.109,1.764-3.621,2.563
			c-1.508,0.799-3.115,1.198-4.822,1.198c-1.818,0-3.35-0.481-4.592-1.444c-1.244-0.965-2.076-2.302-2.502-4.011
			c-0.424-1.707-0.34-3.661,0.25-5.866c0.592-2.203,1.568-4.152,2.932-5.847s2.971-3.019,4.824-3.967
			c1.852-0.951,3.795-1.427,5.834-1.427c1.516,0,2.756,0.33,3.723,0.992c0.967,0.66,1.676,1.433,2.129,2.313l0.762-2.851h4.299
			V273.736z M553.776,291.916c1.322,0,2.566-0.324,3.73-0.971c1.166-0.646,2.174-1.529,3.023-2.646
			c0.85-1.114,1.463-2.375,1.84-3.78c0.367-1.377,0.424-2.617,0.168-3.72c-0.254-1.102-0.791-1.977-1.609-2.623
			c-0.818-0.647-1.889-0.971-3.211-0.971c-1.268,0-2.48,0.315-3.643,0.949c-1.162,0.635-2.166,1.502-3.012,2.604
			c-0.848,1.103-1.457,2.355-1.834,3.761s-0.439,2.666-0.188,3.78c0.252,1.115,0.787,1.998,1.605,2.646
			C551.467,291.592,552.508,291.916,553.776,291.916z"/>
		<path d="M586.258,278.322c-0.238-0.139-0.545-0.254-0.918-0.353c-0.373-0.096-0.781-0.145-1.221-0.145
			c-0.883,0-1.813,0.227-2.787,0.682s-1.857,1.103-2.646,1.941s-1.34,1.84-1.648,2.995l-3.211,11.982h-4.299l5.813-21.691h4.297
			l-1.096,4.091c0.959-1.322,2.168-2.41,3.621-3.265c1.455-0.854,2.857-1.28,4.207-1.28c1.02,0,1.768,0.139,2.244,0.411
			L586.258,278.322z"/>
	</g>
</g>
</svg>
